<svg width="36" height="36" viewBox="0 0 36 36" fill="none" xmlns="http://www.w3.org/2000/svg">
<path d="M26.2468 32.8791C26.0623 32.8836 25.8793 32.8371 25.7188 32.7441L18.0118 28.6851L11.2258 32.3391C10.1188 32.9391 8.73284 32.5281 8.13284 31.4196C8.12534 31.4061 8.11784 31.3926 8.11034 31.3776C7.87484 30.9141 7.79234 30.3906 7.87334 29.8776L9.19334 22.0866L3.67634 16.5006C2.77484 15.5706 2.77484 14.0916 3.67634 13.1601C4.02734 12.7911 4.49234 12.5526 4.99634 12.4836L12.5608 11.3346L15.9253 4.32507C16.4488 3.18507 17.7973 2.68407 18.9388 3.20757C19.4338 3.43407 19.8298 3.83157 20.0563 4.32507L23.4358 11.3586L31.0258 12.5211C31.6393 12.6126 32.1898 12.9516 32.5498 13.4571C33.2218 14.4231 33.1198 15.7281 32.3068 16.5786L26.8153 22.0986L27.5803 26.2971C27.6868 26.9271 27.2713 27.5286 26.6428 27.6471C26.0248 27.7581 25.4338 27.3471 25.3228 26.7276L24.5443 22.5291C24.4138 21.7596 24.6583 20.9736 25.2043 20.4171L30.7093 14.8581L23.1193 13.6806C22.3498 13.5561 21.6973 13.0461 21.3898 12.3306L18.0118 5.32707L14.5918 12.4416C14.2843 13.1586 13.6318 13.6671 12.8623 13.7916L5.29784 14.9406L10.7623 20.4906C11.3068 21.0381 11.5513 21.8136 11.4223 22.5741L10.1023 30.3651L16.8868 26.7261C17.5588 26.3481 18.3793 26.3481 19.0513 26.7261L26.7478 30.7851C27.2173 31.0416 27.4558 31.5831 27.3283 32.1036C27.2113 32.6241 26.7523 32.9946 26.2198 33.0036L26.2468 32.8791Z" fill="#446DF6"/>
</svg>
